<svg width="22" height="18" viewBox="0 0 22 18" fill="none" xmlns="http://www.w3.org/2000/svg">
<path fill-rule="evenodd" clip-rule="evenodd" d="M7.81658 5.09274C7.81658 5.47701 7.50641 5.78889 7.12423 5.78889C6.74204 5.78889 6.43187 5.47701 6.43187 5.09274C6.43187 2.55968 8.48125 0.5 11.0005 0.5C13.5188 0.5 15.5682 2.55968 15.5682 5.09274C15.5682 7.6258 13.5188 9.68548 11.0005 9.68548C9.96936 9.68548 8.99728 9.35225 8.19046 8.72108C7.88859 8.48531 7.83412 8.04813 8.0686 7.74461C8.30216 7.44016 8.7388 7.38632 9.04067 7.62301C9.60194 8.06112 10.2795 8.29318 11.0005 8.29318C12.7563 8.29318 14.1835 6.85725 14.1835 5.09274C14.1835 3.32823 12.7563 1.8923 11.0005 1.8923C9.24469 1.8923 7.81658 3.32823 7.81658 5.09274ZM6.0207 7.9852C6.0207 8.36947 5.71052 8.68135 5.32834 8.68135C3.33527 8.68135 1.71331 7.05143 1.71331 5.04744C1.71331 3.04346 3.33527 1.41261 5.32834 1.41261C5.71052 1.41261 6.0207 1.72448 6.0207 2.10876C6.0207 2.49303 5.71052 2.80491 5.32834 2.80491C4.09871 2.80491 3.09803 3.81108 3.09803 5.04744C3.09803 6.28381 4.09871 7.28905 5.32834 7.28905C5.71052 7.28905 6.0207 7.60092 6.0207 7.9852ZM4.03114 11.872C3.58618 11.9017 3.13938 11.9676 2.70273 12.066C2.03253 12.1988 1.57188 12.4252 1.4528 12.6759C1.36325 12.8661 1.36325 13.0861 1.4528 13.2764C1.51003 13.3961 1.74267 13.6941 2.69073 13.8899C3.06553 13.967 3.30647 14.3346 3.22985 14.7114C3.16338 15.0409 2.87444 15.2674 2.55226 15.2674C2.50611 15.2674 2.45995 15.2628 2.41287 15.2535C1.26725 15.0177 0.524115 14.5536 0.202861 13.8742C-0.0676203 13.3033 -0.0676203 12.6489 0.202861 12.0781C0.527808 11.3922 1.27278 10.929 2.41748 10.7025C2.90583 10.593 3.42371 10.5178 3.9379 10.4835C4.30716 10.4547 4.64965 10.7471 4.67549 11.1304C4.70134 11.5147 4.41332 11.847 4.03114 11.872ZM16.6833 7.3117C16.3011 7.3117 15.9909 7.62357 15.9909 8.00785C15.9909 8.39212 16.3011 8.704 16.6833 8.704C18.6717 8.704 20.29 7.07686 20.29 5.07752C20.29 3.07724 18.6717 1.45103 16.6833 1.45103C16.3011 1.45103 15.9909 1.76198 15.9909 2.14719C15.9909 2.53146 16.3011 2.84334 16.6833 2.84334C17.9083 2.84334 18.9053 3.84579 18.9053 5.07752C18.9053 6.30924 17.9083 7.3117 16.6833 7.3117ZM19.6028 10.7196C20.73 10.9442 21.4731 11.4055 21.7971 12.0878C22.0676 12.6586 22.0676 13.312 21.7971 13.8829C21.4768 14.5596 20.7355 15.0227 19.5917 15.2594C19.5456 15.2696 19.4985 15.2743 19.4514 15.2743C19.1302 15.2743 18.8422 15.0469 18.7748 14.7183C18.6981 14.3414 18.9391 13.9729 19.3139 13.8959C20.2583 13.7 20.4909 13.403 20.5472 13.2842C20.6367 13.0949 20.6367 12.8767 20.5472 12.6874C20.429 12.4377 19.9702 12.2121 19.3185 12.0822C18.8652 11.9819 18.4184 11.916 17.9772 11.8863C17.595 11.8613 17.307 11.528 17.3328 11.1447C17.3577 10.7614 17.691 10.4773 18.0695 10.4977C18.5818 10.5321 19.0969 10.6073 19.6028 10.7196ZM11.0002 11.126C9.33303 11.126 4.26036 11.126 4.26036 14.3218C4.26036 15.0431 4.54284 16.0418 5.88878 16.7055C6.30235 16.9078 6.80269 17.073 7.37689 17.1965C7.74892 17.28 8.11817 17.0368 8.19757 16.6609C8.27788 16.285 8.03878 15.9146 7.66491 15.8348C7.20149 15.7355 6.80823 15.6074 6.49806 15.4542C5.742 15.082 5.64507 14.6541 5.64507 14.3218C5.64507 12.8311 8.55759 12.5183 11.0002 12.5183C14.5543 12.5183 16.3554 13.1189 16.3554 14.3051C16.3554 15.7949 13.4429 16.1077 11.0002 16.1077C10.618 16.1077 10.3079 16.4196 10.3079 16.8038C10.3079 17.1881 10.618 17.5 11.0002 17.5C12.6674 17.5 17.7401 17.5 17.7401 14.3051C17.7401 11.126 12.8438 11.126 11.0002 11.126Z" fill="#BAC0C7"/>
</svg>
